<svg width="40" height="40" viewBox="0 0 40 40" fill="none" xmlns="http://www.w3.org/2000/svg">
<path d="M35.7124 4.29708C34.8791 3.44542 33.6457 3.13042 32.4957 3.46375L5.67907 11.2121C4.46574 11.5488 3.60574 12.5104 3.37407 13.7304C3.13741 14.9737 3.96407 16.5538 5.04407 17.2138L13.4291 22.3338C14.2891 22.8604 15.3991 22.7287 16.1107 22.0154L25.7124 12.4137C26.1957 11.9121 26.9957 11.9121 27.4791 12.4137C27.9624 12.8954 27.9624 13.6804 27.4791 14.1804L17.8607 23.7821C17.1474 24.4954 17.0141 25.6021 17.5391 26.4638L22.6624 34.8804C23.2624 35.8788 24.2957 36.4471 25.4291 36.4471C25.5624 36.4471 25.7124 36.4471 25.8457 36.4288C27.1457 36.2638 28.1791 35.3788 28.5624 34.1288L36.5124 7.51375C36.8624 6.38042 36.5457 5.14708 35.7124 4.29708" fill="#FF5A5F"/>
<path opacity="0.4" d="M13.9838 31.904C14.4721 31.4173 15.264 31.4173 15.7523 31.904C16.2388 32.3923 16.2387 33.1833 15.7523 33.6716L13.4759 35.947C13.2326 36.192 12.9122 36.3132 12.5922 36.3132C12.2723 36.3131 11.9526 36.1918 11.7093 35.947C11.221 35.4586 11.221 34.6687 11.7093 34.1804L13.9838 31.904ZM12.6781 25.5905C13.1664 25.1039 13.9583 25.1039 14.4467 25.5905C14.933 26.0789 14.9332 26.8708 14.4467 27.3591L12.1693 29.6335C11.9261 29.8784 11.6064 30.0006 11.2865 30.0007C10.9665 30.0007 10.646 29.8785 10.4027 29.6335C9.91454 29.1451 9.91445 28.3552 10.4027 27.8669L12.6781 25.5905ZM6.40954 23.6032C6.89785 23.1166 7.6888 23.1166 8.17712 23.6032C8.66379 24.0915 8.66379 24.8834 8.17712 25.3718L5.90075 27.6462C5.65753 27.8911 5.3378 28.0133 5.01794 28.0134C4.69794 28.0134 4.37749 27.8912 4.13415 27.6462C3.6459 27.1578 3.64585 26.3679 4.13415 25.8796L6.40954 23.6032Z" fill="#FF5A5F"/>
</svg>
