<svg width="40" height="40" viewBox="0 0 40 40" fill="none" xmlns="http://www.w3.org/2000/svg">
<path opacity="0.4" d="M36.6665 19.9999C36.6665 29.2049 29.2048 36.6666 19.9998 36.6666C10.7948 36.6666 3.33313 29.2049 3.33313 19.9999C3.33313 10.7966 10.7948 3.33325 19.9998 3.33325C29.2048 3.33325 36.6665 10.7966 36.6665 19.9999" fill="#FF5A5F"/>
<path d="M26.433 14.5083L23.733 23.0417C23.633 23.3917 23.3497 23.675 22.9997 23.7767L14.4997 26.4417C13.933 26.6267 13.383 26.075 13.5663 25.5083L16.233 16.9583C16.333 16.6083 16.6163 16.3417 16.9663 16.225L25.4997 13.5583C26.083 13.375 26.6163 13.925 26.433 14.5083" fill="#FF5A5F"/>
</svg>
