<svg width="158" height="37" viewBox="0 0 158 37" fill="none" xmlns="http://www.w3.org/2000/svg">
<path d="M146.878 34.0511V31.1326L146.6 30.4933V25.2677C146.6 24.3412 146.312 23.6185 145.737 23.0996C145.181 22.5808 144.319 22.3213 143.15 22.3213C142.353 22.3213 141.565 22.4511 140.786 22.7105C140.025 22.9514 139.376 23.2849 138.839 23.7111L137.281 20.6814C138.097 20.107 139.08 19.6622 140.229 19.3472C141.379 19.0322 142.548 18.8747 143.735 18.8747C146.016 18.8747 147.787 19.4121 149.048 20.4868C150.309 21.5616 150.939 23.2386 150.939 25.5178V34.0511H146.878ZM142.316 34.2735C141.147 34.2735 140.146 34.0789 139.311 33.6898C138.477 33.2821 137.837 32.7354 137.392 32.0498C136.947 31.3642 136.724 30.5952 136.724 29.7428C136.724 28.8533 136.938 28.075 137.364 27.4079C137.809 26.7408 138.505 26.222 139.451 25.8514C140.396 25.4622 141.63 25.2677 143.15 25.2677H147.128V27.7971H143.623C142.603 27.7971 141.899 27.9639 141.509 28.2974C141.138 28.6309 140.953 29.0479 140.953 29.5482C140.953 30.1041 141.166 30.5488 141.593 30.8824C142.038 31.1974 142.64 31.3549 143.401 31.3549C144.124 31.3549 144.773 31.1881 145.348 30.8546C145.923 30.5025 146.34 29.9929 146.6 29.3258L147.267 31.3271C146.952 32.2907 146.377 33.0227 145.543 33.523C144.708 34.0233 143.633 34.2735 142.316 34.2735Z" fill="#212331"/>
<path d="M125.623 34.0511L119.336 19.097H123.815L129.044 31.9664H126.819L132.243 19.097H136.416L130.101 34.0511H125.623Z" fill="#212331"/>
<path d="M110.862 34.2735C109.267 34.2735 107.848 33.9399 106.606 33.2728C105.382 32.6057 104.408 31.6977 103.685 30.5488C102.98 29.3814 102.628 28.0565 102.628 26.5741C102.628 25.0731 102.98 23.7482 103.685 22.5993C104.408 21.4319 105.382 20.5239 106.606 19.8753C107.848 19.2082 109.267 18.8747 110.862 18.8747C112.438 18.8747 113.848 19.2082 115.09 19.8753C116.333 20.5239 117.306 21.4226 118.011 22.5715C118.716 23.7204 119.068 25.0546 119.068 26.5741C119.068 28.0565 118.716 29.3814 118.011 30.5488C117.306 31.6977 116.333 32.6057 115.09 33.2728C113.848 33.9399 112.438 34.2735 110.862 34.2735ZM110.862 30.7156C111.585 30.7156 112.234 30.5488 112.809 30.2153C113.384 29.8818 113.838 29.4092 114.172 28.7977C114.506 28.1677 114.673 27.4265 114.673 26.5741C114.673 25.7031 114.506 24.9619 114.172 24.3504C113.838 23.7389 113.384 23.2664 112.809 22.9328C112.234 22.5993 111.585 22.4325 110.862 22.4325C110.138 22.4325 109.489 22.5993 108.914 22.9328C108.34 23.2664 107.876 23.7389 107.524 24.3504C107.19 24.9619 107.023 25.7031 107.023 26.5741C107.023 27.4265 107.19 28.1677 107.524 28.7977C107.876 29.4092 108.34 29.8818 108.914 30.2153C109.489 30.5488 110.138 30.7156 110.862 30.7156Z" fill="#212331"/>
<path d="M98.2331 34.2735C96.4713 34.2735 95.0989 33.8287 94.116 32.9393C93.1331 32.0313 92.6417 30.6878 92.6417 28.9089V15.7894H96.9813V28.8533C96.9813 29.4833 97.1482 29.9744 97.482 30.3265C97.8159 30.66 98.2702 30.8268 98.8451 30.8268C99.5313 30.8268 100.115 30.6415 100.598 30.2709L101.766 33.3284C101.321 33.6434 100.783 33.8843 100.153 34.0511C99.5406 34.1993 98.9008 34.2735 98.2331 34.2735ZM90.3328 22.7661V19.4306H100.709V22.7661H90.3328Z" fill="#212331"/>
<path d="M81.0061 34.2735C79.4112 34.2735 77.9925 33.9399 76.75 33.2728C75.526 32.6057 74.5523 31.6977 73.8291 30.5488C73.1243 29.3814 72.772 28.0565 72.772 26.5741C72.772 25.0731 73.1243 23.7482 73.8291 22.5993C74.5523 21.4319 75.526 20.5239 76.75 19.8753C77.9925 19.2082 79.4112 18.8747 81.0061 18.8747C82.5825 18.8747 83.992 19.2082 85.2345 19.8753C86.4771 20.5239 87.4507 21.4226 88.1554 22.5715C88.8602 23.7204 89.2125 25.0546 89.2125 26.5741C89.2125 28.0565 88.8602 29.3814 88.1554 30.5488C87.4507 31.6977 86.4771 32.6057 85.2345 33.2728C83.992 33.9399 82.5825 34.2735 81.0061 34.2735ZM81.0061 30.7156C81.7294 30.7156 82.3785 30.5488 82.9534 30.2153C83.5283 29.8818 83.9827 29.4092 84.3165 28.7977C84.6503 28.1677 84.8172 27.4265 84.8172 26.5741C84.8172 25.7031 84.6503 24.9619 84.3165 24.3504C83.9827 23.7389 83.5283 23.2664 82.9534 22.9328C82.3785 22.5993 81.7294 22.4325 81.0061 22.4325C80.2829 22.4325 79.6338 22.5993 79.0589 22.9328C78.484 23.2664 78.0203 23.7389 77.668 24.3504C77.3341 24.9619 77.1672 25.7031 77.1672 26.5741C77.1672 27.4265 77.3341 28.1677 77.668 28.7977C78.0203 29.4092 78.484 29.8818 79.0589 30.2153C79.6338 30.5488 80.2829 30.7156 81.0061 30.7156Z" fill="#212331"/>
<path d="M59.7337 30.9936L59.845 25.7124L66.8273 19.097H72.0015L65.2973 25.907L63.0441 27.7415L59.7337 30.9936ZM56.1451 34.0511V13.4267H60.4848V34.0511H56.1451ZM67.3002 34.0511L62.2373 27.7693L64.9635 24.406L72.5579 34.0511H67.3002Z" fill="#212331"/>
<path d="M46.008 18.8747C47.195 18.8747 48.252 19.1156 49.1793 19.5974C50.1251 20.0606 50.867 20.7833 51.4048 21.7654C51.9426 22.729 52.2115 23.9706 52.2115 25.49V34.0511H47.8719V26.1571C47.8719 24.9527 47.603 24.0632 47.0651 23.4888C46.5459 22.9143 45.804 22.6271 44.8397 22.6271C44.1535 22.6271 43.5322 22.7753 42.9759 23.0718C42.438 23.3498 42.0115 23.7852 41.6962 24.3782C41.3995 24.9712 41.2511 25.7309 41.2511 26.6575V34.0511H36.9115V19.0971H41.0564V23.2386L40.2775 21.9878C40.8153 20.9872 41.585 20.2181 42.5864 19.6808C43.5879 19.1434 44.7284 18.8747 46.008 18.8747Z" fill="#212331"/>
<path d="M28.9224 34.0511V31.1326L28.6443 30.4933V25.2677C28.6443 24.3412 28.3568 23.6185 27.7819 23.0996C27.2255 22.5808 26.3632 22.3213 25.1948 22.3213C24.3973 22.3213 23.6092 22.4511 22.8303 22.7105C22.0699 22.9514 21.4208 23.2849 20.883 23.7111L19.3252 20.6814C20.1412 20.107 21.1241 19.6622 22.2739 19.3472C23.4237 19.0322 24.5921 18.8747 25.779 18.8747C28.0601 18.8747 29.8312 19.4121 31.0923 20.4868C32.3533 21.5616 32.9839 23.2386 32.9839 25.5178V34.0511H28.9224ZM24.3603 34.2735C23.1919 34.2735 22.1904 34.0789 21.3559 33.6898C20.5213 33.2821 19.8815 32.7354 19.4364 32.0498C18.9913 31.3642 18.7688 30.5952 18.7688 29.7428C18.7688 28.8533 18.9821 28.075 19.4086 27.4079C19.8537 26.7408 20.5492 26.222 21.495 25.8514C22.4408 25.4622 23.6741 25.2677 25.1948 25.2677H29.1728V27.7971H25.6677C24.6477 27.7971 23.943 27.9639 23.5535 28.2974C23.1826 28.6309 22.9972 29.0479 22.9972 29.5482C22.9972 30.1041 23.2104 30.5488 23.637 30.8824C24.0821 31.1974 24.6848 31.3549 25.4452 31.3549C26.1684 31.3549 26.8175 31.1881 27.3924 30.8546C27.9673 30.5025 28.3846 29.9929 28.6443 29.3258L29.3119 31.3271C28.9966 32.2907 28.4217 33.0227 27.5872 33.523C26.7526 34.0233 25.677 34.2735 24.3603 34.2735Z" fill="#212331"/>
<path d="M8.70711 34.3846C7.1493 34.3846 5.65639 34.1808 4.22839 33.7731C2.80039 33.3469 1.65057 32.8003 0.778931 32.1332L2.30893 28.7421C3.14348 29.3351 4.12639 29.8262 5.25766 30.2153C6.40748 30.5859 7.56657 30.7712 8.73493 30.7712C9.62511 30.7712 10.3391 30.6878 10.8769 30.5211C11.4333 30.3357 11.8413 30.0856 12.1009 29.7706C12.3606 29.4556 12.4904 29.0942 12.4904 28.6865C12.4904 28.1677 12.2864 27.76 11.8784 27.4635C11.4704 27.1485 10.9326 26.8984 10.2649 26.7131C9.59729 26.5092 8.85548 26.3239 8.03948 26.1571C7.24202 25.9718 6.43529 25.7495 5.61929 25.49C4.82184 25.2306 4.08929 24.8971 3.42166 24.4894C2.75402 24.0817 2.20693 23.5443 1.78039 22.8773C1.37239 22.2102 1.16839 21.3578 1.16839 20.3201C1.16839 19.2082 1.46511 18.1983 2.05857 17.2903C2.67057 16.3638 3.57929 15.6319 4.78475 15.0945C6.00875 14.5386 7.53875 14.2606 9.37475 14.2606C10.5987 14.2606 11.8042 14.4089 12.9911 14.7053C14.178 14.9833 15.2258 15.4095 16.1346 15.9839L14.7437 19.4028C13.8349 18.884 12.9262 18.5041 12.0175 18.2632C11.1087 18.0038 10.2186 17.874 9.34693 17.874C8.47529 17.874 7.76129 17.976 7.20493 18.1798C6.64857 18.3836 6.24984 18.6523 6.00875 18.9859C5.76766 19.3009 5.64711 19.6715 5.64711 20.0977C5.64711 20.598 5.85111 21.0057 6.25911 21.3207C6.66711 21.6172 7.20493 21.8581 7.87257 22.0434C8.5402 22.2287 9.27275 22.414 10.0702 22.5993C10.8862 22.7846 11.6929 22.9977 12.4904 23.2386C13.3064 23.4795 14.0482 23.8038 14.7158 24.2114C15.3835 24.6191 15.9213 25.1565 16.3293 25.8236C16.7558 26.4907 16.9691 27.3338 16.9691 28.353C16.9691 29.4463 16.6631 30.4469 16.0511 31.3549C15.4391 32.2629 14.5211 32.9949 13.2971 33.5508C12.0917 34.1067 10.5617 34.3846 8.70711 34.3846Z" fill="#212331"/>
<path d="M157.764 7.37358C156.472 3.74605 152.522 5.28714 150.708 6.51113C151.408 4.93411 151.626 1.85259 146.902 2.14269C142.179 2.43279 143.941 10.3824 145.412 14.3209C150.068 13.5166 159.057 11.0011 157.764 7.37358Z" fill="#F1BABB"/>
<path d="M144.948 2.30338C147.104 1.90461 148.381 2.39659 149.003 3.36545C149.371 3.93929 149.466 4.62174 149.428 5.24422C150.147 4.75821 151.045 4.30406 151.963 4.13397C152.623 4.0117 153.315 4.03263 153.958 4.31726C154.607 4.6041 155.166 5.14119 155.585 5.97849C156.059 6.92576 155.793 7.86291 155.171 8.68636C154.557 9.49908 153.56 10.2584 152.424 10.9377C150.145 12.301 147.171 13.4197 145.13 14.0347L144.824 14.1273L144.676 13.8436C143.799 12.1545 142.735 9.55655 142.423 7.26261C142.268 6.11862 142.292 5.00383 142.661 4.10763C143.041 3.183 143.777 2.52018 144.948 2.30338ZM148.353 3.7817C147.976 3.19298 147.099 2.68939 145.089 3.06136C144.178 3.22994 143.656 3.71527 143.374 4.40043C143.081 5.11403 143.04 6.07069 143.188 7.15874C143.467 9.20688 144.391 11.5563 145.215 13.2019C147.205 12.5807 149.934 11.5284 152.028 10.2761C153.134 9.61461 154.03 8.91664 154.555 8.22194C155.072 7.53798 155.192 6.91748 154.894 6.32323C154.542 5.61906 154.105 5.22472 153.646 5.02179C153.183 4.81668 152.657 4.78944 152.104 4.89195C150.984 5.09941 149.84 5.82338 149.129 6.44178V6.44178C148.836 6.69562 148.394 6.40895 148.507 6.0387V6.0387C148.718 5.34545 148.764 4.42141 148.353 3.7817Z" fill="#C7181D"/>
</svg>
